# xmcd CD database file
#
# Track frame offsets:
#	150
#	15417
#	50966
#	61519
#	73821
#	87854
#	102602
#	145275
#	157176
#	169316
#	182311
#	196585
#	206300
#
# Disc length: 2892 seconds
#
# Revision: 3
# Processed by: cddbd v1.5.2PL0 Copyright (c) Steve Scherf et al.
# Submitted via: CDex 1.51
#
DISCID=b00b4a0d
DTITLE=Dizzy Gillespie - Salt Peanuts  [CD 04-10]
DYEAR=1900
DGENRE=Jazz
TTITLE0=One Sweet Letter From You
TTITLE1=Perdido
TTITLE2=Ray's Idea
TTITLE3=Cool Breeze
TTITLE4=Geechy Joe
TTITLE5=Hey, Doc!
TTITLE6=Hot House
TTITLE7=I Want To Talk About You
TTITLE8=My Gal
TTITLE9=One Bass Hit  (Part 1)
TTITLE10=Oop-Pop-A-Da
TTITLE11=Sure Thing
TTITLE12=Time On My Hands
EXTD=
EXTT0=
EXTT1=
EXTT2=
EXTT3=
EXTT4=
EXTT5=
EXTT6=
EXTT7=
EXTT8=
EXTT9=
EXTT10=
EXTT11=
EXTT12=
PLAYORDER=
